#!OML:ASF H:\Terrain\Patient Classification 1\Terrain2\Thursday\justin.ASF
:FULLY-SPECIFIED
:DEGREES
4493
root 9.90244 26.7349 -1.74654 181.224 -133.274 178.83
lowerback 7.71372 0.138056 -0.140049
upperback 1.00588 0.214527 1.67606
thorax -3.29182 0.11001 1.78947
lowerneck -12.3174 -6.0625 -11.1256
upperneck 21.035 -7.64676 6.43791
head 9.33838 -3.85356 3.13126
rclavicle 1.93815e-015 7.95139e-015
rhumerus -30.733 -6.11887 -83.0988
rradius 35.9203
rwrist -12.5226
rhand -21.1278 15.5371
rfingers 7.12502
rthumb 5.25091 -14.3779
lclavicle 1.93815e-015 7.95139e-015
lhumerus -37.5786 4.31125 82.3705
lradius 26.3973
lwrist 0.303018
lhand -23.0962 20.3585
lfingers 7.12502
lthumb 3.35023 50.3119
rfemur -18.4457 -23.6072 23.9673
rtibia 41.622
rfoot -23.2105 -12.7297
rtoes 6.59981
lfemur -5.03892 9.28517 -19.8384
ltibia 30.0022
lfoot -20.7927 10.3843
ltoes -2.65578
4494
root 9.88229 26.7369 -1.73653 181.273 -132.311 178.877
lowerback 7.52346 0.113641 -0.158656
upperback 0.943324 0.179796 1.65247
thorax -3.24914 0.0932704 1.77889
lowerneck -12.1666 -5.86041 -11.0058
upperneck 20.7212 -7.41712 6.55502
head 9.17708 -3.7264 3.18494
rclavicle 3.89121e-014 -1.47101e-014
rhumerus -30.9574 -5.72532 -83.3317
rradius 36.2848
rwrist -12.7258
rhand -21.396 16.0429
rfingers 7.12502
rthumb 4.99202 -13.8783
lclavicle 3.89121e-014 -1.47101e-014
lhumerus -37.6515 4.19445 82.207
lradius 26.4139
lwrist 0.310807
lhand -23.3949 20.3763
lfingers 7.12502
lthumb 3.06171 50.334
rfemur -18.5554 -23.6717 24.0348
rtibia 41.3564
rfoot -22.4498 -12.2929
rtoes 8.89213
lfemur -4.90932 9.80974 -19.9106
ltibia 29.9028
lfoot -20.8465 10.8621
ltoes -2.58427
4495
root 9.86323 26.7287 -1.72346 181.051 -131.428 179.106
lowerback 7.47002 0.0783379 -0.303436
upperback 0.922275 0.12112 1.65526
thorax -3.23948 0.0660415 1.86923
lowerneck -12.1234 -5.71922 -11.0289
upperneck 20.6105 -7.2251 6.59889
head 9.11422 -3.63492 3.22942
rclavicle -2.15681e-014 -1.27222e-014
rhumerus -31.101 -5.28406 -83.4076
rradius 36.5244
rwrist -13.0343
rhand -21.8558 15.5427
rfingers 7.12502
rthumb 4.54799 -14.3885
lclavicle -2.15681e-014 -1.27222e-014
lhumerus -37.6749 4.56453 81.9934
lradius 26.4629
lwrist -0.298996
lhand -23.0449 20.9856
lfingers 7.12502
lthumb 3.39974 50.9383
rfemur -18.5204 -23.8784 23.8579
rtibia 41.2537
rfoot -21.4945 -11.5202
rtoes 10.3379
lfemur -4.58159 10.0083 -20.1395
ltibia 29.7581
lfoot -21.2029 11.321
ltoes -2.08695
4496
root 9.84246 26.7282 -1.71531 181.002 -130.613 179.347
lowerback 7.25096 0.0476922 -0.46705
upperback 0.868247 0.0670299 1.63624
thorax -3.17122 0.0413785 1.94655
lowerneck -12.3225 -5.5928 -10.8793
upperneck 20.8198 -7.04651 6.48409
head 9.19531 -3.55075 3.18537
rclavicle 5.1684e-015 7.15625e-015
rhumerus -31.0452 -5.23421 -83.3835
rradius 36.411
rwrist -13.1263
rhand -21.7146 15.503
rfingers 7.12502
rthumb 4.68432 -14.4252
lclavicle 5.1684e-015 7.15625e-015
lhumerus -37.6416 4.6224 81.842
lradius 26.6134
lwrist -0.53961
lhand -22.6642 21.5562
lfingers 7.12502
lthumb 3.76737 51.5027
rfemur -18.6203 -23.792 23.756
rtibia 41.2679
rfoot -21.1712 -10.5074
rtoes 11.2211
lfemur -4.4828 10.1495 -20.3881
ltibia 29.6063
lfoot -21.3994 11.8551
ltoes -2.08501
4497
root 9.82201 26.731 -1.71311 181.115 -129.74 179.382
lowerback 7.06901 -0.0144442 -0.662322
upperback 0.809318 -0.02629 1.77252
thorax -3.12687 -0.00181255 2.20627
lowerneck -12.5276 -5.42016 -10.8715
upperneck 20.9275 -6.76631 6.37842
head 9.23952 -3.42787 3.18046
rclavicle 5.64548e-014 1.11319e-014
rhumerus -30.9308 -4.92678 -83.3314
rradius 36.2202
rwrist -12.9355
rhand -22.1495 15.4664
rfingers 7.12502
rthumb 4.26439 -14.4707
lclavicle 5.64548e-014 1.11319e-014
lhumerus -37.5976 4.79854 81.7609
lradius 26.6476
lwrist -0.153605
lhand -23.1161 21.6176
lfingers 7.12502
lthumb 3.33094 51.5714
rfemur -18.6385 -23.2839 23.7949
rtibia 41.2832
rfoot -21.5162 -9.35977
rtoes 13.224
lfemur -4.4322 10.3686 -20.448
ltibia 29.5044
lfoot -21.4368 12.3785
ltoes -2.12266
4498
root 9.8047 26.7331 -1.71807 181.133 -128.9 179.327
lowerback 7.18905 -0.0257775 -0.768129
upperback 0.727164 -0.0452322 1.87508
thorax -3.27807 -0.00758321 2.37527
lowerneck -12.5049 -5.28313 -10.9136
upperneck 20.8595 -6.57938 6.43594
head 9.19685 -3.33878 3.23179
rclavicle 1.26924e-013 1.11319e-014
rhumerus -31.0481 -4.68283 -83.3433
rradius 36.2268
rwrist -12.9694
rhand -22.3303 15.32
rfingers 7.12502
rthumb 4.08986 -14.6205
lclavicle 1.26924e-013 1.11319e-014
lhumerus -37.5877 5.00089 81.5927
lradius 26.5718
lwrist 0.04253
lhand -24.3511 21.3508
lfingers 7.12502
lthumb 2.13826 51.3198
rfemur -18.4445 -22.5003 23.8535
rtibia 41.1801
rfoot -21.9863 -8.56681
rtoes 14.523
lfemur -4.29603 10.4473 -20.4113
ltibia 29.5375
lfoot -21.4992 13.0103
ltoes -2.22416
4499
root 9.78908 26.7381 -1.72847 181.783 -128.049 178.506
lowerback 7.40012 0.00982236 -0.318728
upperback 0.605664 0.0451179 2.01583
thorax -3.52606 0.034005 2.26067
lowerneck -12.5535 -5.16327 -10.8043
upperneck 20.8836 -6.45039 6.50662
head 9.19909 -3.26329 3.25455
rclavicle -1.61513e-014 -4.37326e-015
rhumerus -31.2804 -4.78098 -83.3754
rradius 36.3003
rwrist -13.2367
rhand -22.2109 15.2164
rfingers 7.12502
rthumb 4.20513 -14.7218
lclavicle -1.61513e-014 -4.37326e-015
lhumerus -37.593 4.75318 81.5487
lradius 26.5694
lwrist 0.173375
lhand -25.3339 21.2114
lfingers 7.12502
lthumb 1.18912 51.1878
rfemur -18.2561 -21.4063 24.4787
rtibia 40.9068
rfoot -22.207 -8.45118
rtoes 13.8903
lfemur -4.2882 10.4182 -19.8813
ltibia 29.7207
lfoot -21.6227 13.8537
ltoes -3.21202
4500
root 9.76661 26.7335 -1.73092 182.62 -127.252 177.367
lowerback 7.49158 -0.0203793 0.312422
upperback 0.582707 0.0649017 2.26705
thorax -3.60163 0.0349703 2.16428
lowerneck -12.7503 -5.00917 -10.6343
upperneck 21.0081 -6.22334 6.35464
head 9.24556 -3.15781 3.20043
rclavicle 3.75206e-014 -2.74323e-014
rhumerus -31.4234 -4.68789 -83.3523
rradius 36.3206
rwrist -13.5666
rhand -22.0908 14.2296
rfingers 7.12502
rthumb 4.32111 -15.7064
lclavicle 3.75206e-014 -2.74323e-014
lhumerus -37.5393 4.56878 81.6201
lradius 26.6503
lwrist 0.472084
lhand -25.6383 21.4777
lfingers 7.12502
lthumb 0.895057 51.4556
rfemur -17.8396 -20.458 25.2227
rtibia 40.5061
rfoot -22.1209 -8.52877
rtoes 12.8927
lfemur -4.195 10.3705 -19.131
ltibia 30.0181
lfoot -21.8528 14.527
ltoes -3.99997
4501
root 9.74096 26.7168 -1.72887 182.504 -126.49 177.413
lowerback 7.42459 -0.0356821 0.289583
upperback 0.624863 0.0401984 2.27129
thorax -3.51957 0.0223054 2.18347
lowerneck -13.0298 -4.91167 -10.3721
upperneck 21.3083 -6.07544 6.10393
head 9.37079 -3.09331 3.0863
rclavicle -5.83433e-014 -1.98785e-015
rhumerus -31.5164 -4.63248 -83.3525
rradius 36.2691
rwrist -13.7881
rhand -21.6448 13.5946
rfingers 7.12502
rthumb 4.75178 -16.3321
lclavicle -5.83433e-014 -1.98785e-015
lhumerus -37.3879 4.78962 81.3757
lradius 26.7155
lwrist 0.412906
lhand -25.4869 21.8245
lfingers 7.12502
lthumb 1.04133 51.8017
rfemur -17.3661 -19.8368 25.1377
rtibia 40.076
rfoot -21.8936 -8.37006
rtoes 11.767
lfemur -4.09155 10.5276 -19.1381
ltibia 30.3602
lfoot -22.0853 14.8701
ltoes -4.297
4502
root 9.72261 26.7058 -1.73219 182.277 -125.8 177.736
lowerback 7.41996 -0.0590403 0.0895008
upperback 0.558285 -0.00668468 2.22899
thorax -3.58425 0.00286603 2.25762
lowerneck -13.1971 -4.86889 -10.1525
upperneck 21.5877 -6.00662 5.85031
head 9.47793 -3.07203 2.96933
rclavicle 3.72721e-014 1.27222e-014
rhumerus -31.6523 -4.53652 -83.3962
rradius 36.0864
rwrist -13.8909
rhand -22.5136 14.2814
rfingers 7.12502
rthumb 3.91283 -15.6624
lclavicle 3.72721e-014 1.27222e-014
lhumerus -37.4018 5.16041 81.0378
lradius 26.7368
lwrist -0.0220717
lhand -25.1512 21.7168
lfingers 7.12502
lthumb 1.3655 51.6921
rfemur -17.0693 -19.1734 24.9107
rtibia 39.6841
rfoot -21.7409 -7.8334
rtoes 11.8516
lfemur -4.14352 10.8604 -19.3088
ltibia 30.6545
lfoot -22.2323 15.0067
ltoes -4.21889
4503
root 9.70559 26.7085 -1.73442 182.494 -125.309 177.402
lowerback 7.54525 -0.16029 0.325978
upperback 0.508011 -0.116476 2.32338
thorax -3.70264 -0.054525 2.23524
lowerneck -13.1791 -4.80621 -10.0631
upperneck 21.5809 -5.90352 5.68394
head 9.4549 -3.03556 2.90989
rclavicle 6.13748e-014 2.42517e-014
rhumerus -31.6122 -4.60665 -83.3179
rradius 35.6287
rwrist -13.8277
rhand -22.3723 14.6611
rfingers 7.12502
rthumb 4.04926 -15.2802
lclavicle 6.13748e-014 2.42517e-014
lhumerus -37.4213 5.26787 80.941
lradius 26.7347
lwrist -0.141925
lhand -24.7332 21.5478
lfingers 7.12502
lthumb 1.76929 51.5202
rfemur -16.6685 -18.4552 25.042
rtibia 39.3256
rfoot -21.6082 -7.10753
rtoes 13.5532
lfemur -4.07699 10.71 -19.0665
ltibia 30.8902
lfoot -22.6524 14.9566
ltoes -1.40182
